<?xml version="1.0" standalone="no"?>
<!DOCTYPE svg PUBLIC "-//W3C//DTD SVG 20010904//EN"
 "http://www.w3.org/TR/2001/REC-SVG-20010904/DTD/svg10.dtd">
<svg version="1.0" xmlns="http://www.w3.org/2000/svg"
 width="810.000000pt" height="810.000000pt" viewBox="0 0 810.000000 810.000000"
 preserveAspectRatio="xMidYMid meet">
<metadata>
Created by potrace 1.11, written by Peter Selinger 2001-2013
</metadata>
<g transform="translate(0.000000,810.000000) scale(0.100000,-0.100000)"
fill="#000000" stroke="none">
<path d="M4622 4828 c-6 -7 -15 -38 -21 -68 -6 -30 -18 -89 -27 -130 -9 -41
-19 -93 -24 -115 -8 -44 -57 -273 -90 -420 -5 -22 -16 -76 -25 -120 -9 -44
-23 -105 -30 -135 -8 -30 -15 -75 -17 -100 -3 -42 -1 -45 23 -48 34 -4 59 21
59 58 0 44 18 46 58 7 67 -65 166 -89 275 -67 101 22 166 66 213 146 80 135
69 293 -26 386 -42 40 -57 48 -124 63 -71 16 -81 16 -148 1 -40 -9 -82 -23
-92 -31 -11 -8 -26 -15 -34 -15 -19 0 -18 6 38 260 52 235 67 315 62 328 -5
16 -57 15 -70 0z m240 -629 c71 -19 128 -101 128 -184 0 -59 -31 -136 -71
-175 -59 -57 -103 -75 -184 -75 -107 0 -170 47 -196 148 -23 83 25 206 97 254
43 28 127 53 158 48 17 -3 47 -10 68 -16z"/>
<path d="M6846 4828 c-16 -49 -26 -90 -35 -138 -6 -30 -17 -86 -26 -125 -28
-127 -67 -309 -75 -350 -12 -59 -37 -180 -55 -260 -9 -38 -20 -92 -25 -120 -5
-27 -13 -66 -18 -85 -12 -47 -6 -60 28 -60 35 0 44 12 60 78 6 28 14 52 17 52
2 0 29 -27 60 -61 83 -89 175 -148 285 -183 77 -24 93 -20 93 23 0 32 -4 36
-50 54 -92 35 -177 82 -223 122 -43 37 -132 149 -132 164 0 13 34 43 204 184
91 77 163 143 160 148 -3 5 -25 9 -49 9 -46 0 -41 4 -223 -152 -30 -27 -60
-48 -65 -48 -11 0 -8 19 37 230 15 74 21 99 73 335 14 66 26 136 27 155 1 32
-1 35 -32 38 -20 2 -34 -2 -36 -10z"/>
<path d="M1700 4785 c-90 -17 -126 -30 -205 -74 -148 -83 -265 -245 -299 -413
-61 -295 77 -550 329 -607 100 -23 223 -15 328 20 110 37 151 62 232 144 129
130 195 287 195 465 0 181 -93 346 -238 423 -52 28 -176 57 -237 56 -16 -1
-64 -7 -105 -14z m231 -102 c109 -34 175 -92 222 -193 27 -60 30 -74 30 -176
-1 -118 -12 -163 -69 -276 -33 -65 -145 -177 -207 -206 -95 -45 -140 -55 -237
-56 -94 -1 -115 4 -206 45 -102 48 -165 141 -184 274 -35 258 128 509 380 587
73 22 203 23 271 1z"/>
<path d="M2684 4286 c-28 -7 -72 -25 -98 -40 -25 -15 -47 -23 -47 -19 -1 4 -2
17 -3 28 -1 15 -9 21 -32 23 -17 2 -35 -3 -41 -10 -6 -7 -20 -58 -32 -113 -11
-55 -28 -131 -36 -170 -18 -83 -44 -204 -55 -260 -4 -22 -22 -105 -40 -185
-18 -80 -36 -163 -40 -185 -4 -22 -15 -76 -24 -119 -13 -64 -14 -81 -4 -88 33
-20 78 5 78 43 0 11 7 48 15 82 8 34 26 118 40 187 70 340 73 350 90 350 8 0
15 -6 15 -14 0 -25 77 -84 131 -100 62 -19 109 -20 181 -5 75 16 120 41 167
95 52 59 69 94 86 171 13 63 13 70 -7 153 -22 89 -93 155 -191 176 -74 16 -87
16 -153 0z m129 -81 c66 -20 106 -51 128 -99 51 -112 -2 -259 -115 -319 -60
-31 -176 -31 -228 1 -94 58 -117 190 -55 309 20 38 93 91 151 109 53 17 62 17
119 -1z"/>
<path d="M3404 4286 c-111 -27 -191 -88 -243 -186 -30 -55 -33 -71 -35 -148
-1 -71 3 -96 21 -133 39 -82 141 -150 178 -119 27 22 18 55 -22 81 -46 30 -97
93 -90 111 2 8 105 74 228 148 227 135 251 153 243 173 -9 23 -75 60 -132 73
-68 16 -81 16 -148 0z m112 -80 c10 -8 17 -17 14 -19 -4 -4 -237 -145 -303
-184 -22 -13 -14 31 13 76 38 61 105 110 175 127 67 16 78 16 101 0z"/>
<path d="M3931 4273 c-48 -23 -54 -24 -63 -10 -6 11 -22 17 -43 17 -32 0 -34
-2 -49 -54 -9 -30 -16 -61 -16 -69 0 -9 -7 -44 -15 -79 -8 -35 -19 -83 -24
-108 -6 -25 -17 -81 -27 -125 -9 -44 -20 -92 -24 -106 -10 -31 4 -49 36 -49
29 0 46 22 55 73 4 23 14 74 23 112 9 39 21 95 27 126 22 116 90 188 201 208
55 11 70 10 118 -6 49 -16 57 -23 79 -66 26 -53 27 -37 -14 -222 -40 -180 -45
-207 -40 -215 11 -17 64 -11 73 8 5 9 14 44 21 77 16 74 36 165 50 228 22 94
6 167 -47 223 -65 68 -223 86 -321 37z"/>
<path d="M5420 4286 c-127 -28 -203 -104 -245 -243 -41 -135 14 -274 131 -332
60 -30 126 -37 206 -21 77 15 123 38 164 82 68 72 105 159 106 247 1 138 -77
240 -205 267 -73 16 -85 16 -157 0z m133 -81 c26 -8 62 -24 79 -36 85 -61 91
-226 11 -319 -54 -63 -104 -84 -194 -85 -65 0 -81 4 -116 27 -118 78 -111 283
12 368 43 29 110 57 145 59 8 0 37 -6 63 -14z"/>
<path d="M6150 4285 c-104 -24 -175 -80 -217 -172 -42 -90 -50 -154 -30 -229
39 -150 163 -224 327 -196 89 15 135 38 187 95 54 58 74 98 89 174 32 167 -46
296 -200 329 -73 16 -85 16 -156 -1z m178 -97 c23 -11 55 -36 70 -56 25 -32
27 -43 27 -122 0 -67 -4 -92 -19 -115 -68 -108 -170 -153 -285 -125 -93 22
-145 99 -139 205 7 117 74 199 187 231 54 15 100 10 159 -18z"/>
</g>
</svg>
